<svg width="72" height="72" viewBox="0 0 24 24" fill="none" xmlns="http://www.w3.org/2000/svg">
<path d="M9.19621 8.14705L9.28031 8.21967L11.7501 10.689L14.2197 8.21967C14.5126 7.92678 14.9874 7.92678 15.2803 8.21967C15.5466 8.48594 15.5708 8.9026 15.3529 9.19621L15.2803 9.28033L12.8111 11.75L15.2803 14.2197C15.5732 14.5126 15.5732 14.9874 15.2803 15.2803C15.0141 15.5466 14.5974 15.5708 14.3038 15.3529L14.2197 15.2803L11.7501 12.811L9.28031 15.2803C8.98741 15.5732 8.51261 15.5732 8.21971 15.2803C7.95341 15.0141 7.92921 14.5974 8.14701 14.3038L8.21971 14.2197L10.6891 11.75L8.21971 9.28033C7.92681 8.98744 7.92681 8.51256 8.21971 8.21967C8.48591 7.9534 8.90261 7.9292 9.19621 8.14705Z" fill="#fff"/>
</svg>
