<svg width="124" height="88" fill="none" xmlns="http://www.w3.org/2000/svg"><path d="M32.165 37.674H8.217a2.474 2.474 0 0 0-2.474 2.474v12.603a2.474 2.474 0 0 0 2.474 2.474h23.948a2.474 2.474 0 0 0 2.473-2.474V40.148a2.474 2.474 0 0 0-2.473-2.474z" fill="#fff" stroke="#000" stroke-linecap="round" stroke-linejoin="round"/><path d="M24.103 60.26h-7.824l.686-6.757a3.023 3.023 0 0 1 3.023-3.023h.406a3.023 3.023 0 0 1 3.022 3.023l.687 6.758z" fill="#fff" stroke="#000" stroke-linecap="round" stroke-linejoin="round"/><path d="m25.267 11.492-11.866.042a5.288 5.288 0 0 0-4.369 2.34l-5.139 7.682a5.279 5.279 0 0 0 .023 5.91l5.2 7.64a5.277 5.277 0 0 0 4.385 2.309l11.866-.042a5.288 5.288 0 0 0 4.368-2.34l5.144-7.678a5.279 5.279 0 0 0-.023-5.91l-5.201-7.64a5.277 5.277 0 0 0-4.384-2.309l-.004-.004z" fill="#3A86FF"/><path d="M16.266 4.5h6.113a2.33 2.33 0 0 1 2.328 2.328v4.652h-10.77V6.828a2.33 2.33 0 0 1 2.33-2.328z" fill="#fff" stroke="#000" stroke-linecap="round" stroke-linejoin="round"/><path d="M9.19 11.48h20.265" stroke="#000" stroke-linecap="round" stroke-linejoin="round"/><path d="M26.234 24.173a2.715 2.715 0 1 0 0-5.43 2.715 2.715 0 0 0 0 5.43zm-8.162 0a2.715 2.715 0 1 0 0-5.43 2.715 2.715 0 0 0 0 5.43z" stroke="#000" stroke-miterlimit="10"/><path d="M23.453 21.64h-2.589v.434h2.59v-.433z" stroke="#000" stroke-miterlimit="10"/><path d="M46.078 41H40.26A3.26 3.26 0 0 0 37 44.26v21.247a3.26 3.26 0 0 0 3.26 3.26h5.818a3.26 3.26 0 0 0 3.26-3.26V44.26c0-1.8-1.46-3.26-3.26-3.26z" fill="#fff" stroke="#000" stroke-linecap="round" stroke-linejoin="round"/><path d="M95.39 85.781c14.576 0 26.391-11.815 26.391-26.39 0-14.575-11.815-26.391-26.39-26.391C80.815 33 69 44.816 69 59.39c0 14.576 11.816 26.391 26.39 26.391z" fill="#FFBF00"/><path d="m72.023 49.5 37.801.088c1.438 0 2.6 1.17 2.6 2.608v.092" stroke="#000" stroke-width="1.016" stroke-linecap="round" stroke-linejoin="round"/><path d="M88.841 49.64c-.034 4.649-3.835 8.392-8.484 8.357-4.648-.034-8.391-3.835-8.357-8.483l16.841.126v0zm17.631.064a8.423 8.423 0 0 1-8.484 8.357c-4.648-.034-8.391-3.835-8.357-8.483l16.841.126v0z" stroke="#000" stroke-width="1.016" stroke-linecap="round" stroke-linejoin="round"/><path d="M53.633 14.223c7.288.094 13.119 6.077 13.025 13.365l-.535 41.448c-.095 7.287-6.078 13.119-13.366 13.025-7.287-.095-13.118-6.078-13.024-13.366l.535-41.448c.094-7.287 6.078-13.118 13.365-13.024z" fill="#00DDB3" stroke="#000"/><path d="M51.54 35.67c.011-.795-.372-1.444-.855-1.45-.483-.006-.883.633-.893 1.427-.01.794.373 1.443.856 1.45.483.005.883-.633.893-1.428zm8.335-.028c.01-.794-.373-1.443-.856-1.45-.483-.006-.882.633-.893 1.428-.01.794.373 1.443.856 1.449.483.006.883-.633.893-1.427z" fill="#000"/><path d="M52.545 45.607s1.826 1.772 3.652 0" stroke="#000" stroke-width=".986" stroke-linecap="round" stroke-linejoin="round"/><path d="m93.138 81.722-3.567 2.811L86 81.723l1.35-19.457h4.441l1.347 19.456z" fill="#000"/><path d="M91.047 59.418h-3.214a1.19 1.19 0 0 0-1.189 1.189v2.301a1.19 1.19 0 0 0 1.19 1.189h3.213a1.19 1.19 0 0 0 1.19-1.189v-2.301a1.19 1.19 0 0 0-1.19-1.189z" fill="#000"/><mask id="a" fill="#fff"><path fill-rule="evenodd" clip-rule="evenodd" d="M67.72 11.519c0 .676-.063 1.337-.185 1.978 4.81.967 8.434 5.216 8.434 10.312 0 5.81-4.71 10.519-10.518 10.519-4.808 0-8.862-3.225-10.118-7.63a10.477 10.477 0 0 1-6.814 2.505C42.709 29.203 38 24.494 38 18.685c0-5.364 4.014-9.79 9.202-10.437C48.577 4.04 52.535 1 57.202 1c5.81 0 10.519 4.71 10.519 10.519z"/></mask><path fill-rule="evenodd" clip-rule="evenodd" d="M67.72 11.519c0 .676-.063 1.337-.185 1.978 4.81.967 8.434 5.216 8.434 10.312 0 5.81-4.71 10.519-10.518 10.519-4.808 0-8.862-3.225-10.118-7.63a10.477 10.477 0 0 1-6.814 2.505C42.709 29.203 38 24.494 38 18.685c0-5.364 4.014-9.79 9.202-10.437C48.577 4.04 52.535 1 57.202 1c5.81 0 10.519 4.71 10.519 10.519z" fill="#000"/><path d="m67.535 13.497-.982-.187-.185.972.97.195.197-.98zM55.333 26.698l.962-.274-.426-1.495-1.184 1.008.648.761zm-8.131-18.45.124.992.629-.079.197-.603-.95-.31zm21.315 5.436a11.57 11.57 0 0 0 .204-2.165h-2a9.57 9.57 0 0 1-.168 1.79l1.964.375zm8.452 10.125c0-5.581-3.968-10.233-9.237-11.293l-.394 1.961c4.353.875 7.631 4.722 7.631 9.332h2zM65.451 35.328c6.361 0 11.518-5.157 11.518-11.519h-2a9.519 9.519 0 0 1-9.518 9.519v2zm-11.08-8.356c1.375 4.823 5.813 8.356 11.08 8.356v-2a9.524 9.524 0 0 1-9.156-6.904l-1.923.548zm-5.852 3.231c2.846 0 5.453-1.033 7.462-2.744l-1.296-1.523a9.477 9.477 0 0 1-6.166 2.267v2zM37 18.685c0 6.361 5.157 11.518 11.519 11.518v-2A9.519 9.519 0 0 1 39 18.685h-2zm10.078-11.43C41.396 7.965 37 12.811 37 18.685h2c0-4.853 3.632-8.859 8.326-9.445l-.248-1.985zM57.202 0c-5.113 0-9.445 3.33-10.95 7.937l1.9.621A9.524 9.524 0 0 1 57.202 2V0zM68.72 11.519C68.72 5.157 63.563 0 57.2 0v2a9.519 9.519 0 0 1 9.52 9.519h2z" fill="#000" mask="url(#a)"/><path d="M48.096 61.245H5.367v22h42.73v-22zm2.708-2.9H2v2.9h48.804v-2.9z" fill="#fff" stroke="#000" stroke-linecap="round" stroke-linejoin="round"/><path d="M68.135 55.848c-2.31-3.797-8.081-3.797-10.39 0l-6.466 10.631-6.467 10.632c-2.308 3.796.58 8.54 5.197 8.54h25.862c4.617 0 7.505-4.743 5.196-8.54l-6.466-10.632-6.466-10.631z" fill="#FF7100" stroke="#000" stroke-miterlimit="10"/><path d="m66.045 83.638-2.032 1.604-2.033-1.604.767-11.072h2.531l.767 11.072z" fill="#000"/><path d="M64.795 70.945h-1.569a.863.863 0 0 0-.863.863v.94c0 .476.387.862.863.862h1.569a.863.863 0 0 0 .863-.863v-.94a.863.863 0 0 0-.863-.862z" fill="#000"/><path d="M68.09 69.487a2.715 2.715 0 1 0 0-5.43 2.715 2.715 0 0 0 0 5.43zm-8.162 0a2.715 2.715 0 1 0 0-5.43 2.715 2.715 0 0 0 0 5.43z" fill="#FF7100" stroke="#000" stroke-miterlimit="10"/><path d="M65.305 66.957h-2.589v.433h2.59v-.433z" fill="#000" stroke="#000" stroke-miterlimit="10"/><path d="M84.31 69.09 74 69.12l.047 16.898 10.31-.03-.048-16.897z" fill="#fff" stroke="#000" stroke-width=".621" stroke-linecap="round" stroke-linejoin="round"/><path d="m77.06 69.106-.08 16.898" stroke="#000" stroke-width=".621" stroke-linecap="round" stroke-linejoin="round"/><path d="M77.053 68.715c0-1.495 1.016-2.711 2.274-2.715 1.258-.004 2.286 1.204 2.29 2.7" stroke="#000" stroke-width=".932" stroke-linecap="round" stroke-linejoin="round"/></svg>