<svg width="31" height="30" viewBox="0 0 31 30" fill="none" xmlns="http://www.w3.org/2000/svg">
<path d="M10.7188 3C6.82922 3 3.66406 6.14062 3.66406 10V20C3.66406 23.8594 6.82922 27 10.7188 27H20.7969C24.6864 27 27.8516 23.8594 27.8516 20V10C27.8516 6.14062 24.6864 3 20.7969 3H10.7188ZM22.8125 7C23.3676 7 23.8203 7.44922 23.8203 8C23.8203 8.55078 23.3676 9 22.8125 9C22.2574 9 21.8047 8.55078 21.8047 8C21.8047 7.44922 22.2574 7 22.8125 7ZM15.7578 9C19.0923 9 21.8047 11.6914 21.8047 15C21.8047 18.3086 19.0923 21 15.7578 21C12.4234 21 9.71094 18.3086 9.71094 15C9.71094 11.6914 12.4234 9 15.7578 9ZM15.7578 11C13.5296 11 11.7266 12.7891 11.7266 15C11.7266 17.2109 13.5296 19 15.7578 19C17.986 19 19.7891 17.2109 19.7891 15C19.7891 12.7891 17.986 11 15.7578 11Z" fill="#A3B18A"/>
</svg>
